<svg width="1440" height="1258" viewBox="0 0 1440 1258" fill="none" xmlns="http://www.w3.org/2000/svg">
<g clip-path="url(#clip0_173_298)">
<path d="M1183.76 256.811V154.666L1272.15 205.738L1183.76 256.811ZM1188.9 163.786V247.857L1261.7 205.738L1188.9 163.786Z" fill="#9D9D9D"/>
<path d="M1170 237.41V135.43L1258.38 186.503L1170 237.41ZM1175.14 144.219V228.29L1247.94 186.171L1175.14 144.219Z" fill="black"/>
<path d="M1404.91 188.207L1357.42 179.665C1356.12 179.431 1355.56 177.815 1356.42 176.79L1387.48 139.919L1418.54 103.048C1419.4 102.023 1421.03 102.316 1421.48 103.576L1437.75 148.959L1454.02 194.342C1454.46 195.602 1453.38 196.924 1452.08 196.689L1404.91 188.207Z" fill="#848484"/>
<path d="M1376.72 196.952L1329.23 188.411C1327.92 188.176 1327.37 186.56 1328.23 185.535L1359.29 148.664L1390.35 111.793C1391.21 110.768 1392.84 111.061 1393.29 112.321L1409.56 157.704L1425.82 203.088C1426.27 204.347 1425.19 205.669 1423.89 205.435L1376.72 196.952Z" stroke="black" stroke-width="1.4268" stroke-miterlimit="10"/>
<path d="M1284.66 287.354L1246.85 280.555C1245.82 280.368 1245.38 279.082 1246.06 278.266L1270.78 248.919L1295.5 219.572C1296.19 218.757 1297.49 218.99 1297.84 219.993L1310.79 256.115L1323.74 292.237C1324.1 293.24 1323.24 294.292 1322.2 294.105L1284.66 287.354Z" fill="#848484"/>
<path d="M1262.22 294.315L1224.41 287.516C1223.38 287.329 1222.94 286.043 1223.62 285.228L1248.34 255.88L1273.06 226.533C1273.75 225.718 1275.05 225.951 1275.4 226.954L1288.35 263.076L1301.3 299.198C1301.66 300.201 1300.8 301.253 1299.76 301.066L1262.22 294.315Z" stroke="black" stroke-width="1.4268" stroke-miterlimit="10"/>
<path d="M1309.43 158.612L1292.21 170.27C1291.74 170.59 1291.08 170.258 1291.04 169.683L1289.52 148.961L1288.01 128.238C1287.96 127.664 1288.56 127.263 1289.07 127.517L1307.75 136.622L1326.43 145.726C1326.94 145.98 1327.01 146.713 1326.54 147.033L1309.43 158.612Z" fill="#848484"/>
<path d="M1303.37 169.794L1286.15 181.452C1285.67 181.773 1285.02 181.441 1284.97 180.866L1283.46 160.144L1281.94 139.421C1281.9 138.846 1282.49 138.446 1283.01 138.7L1301.69 147.804L1320.36 156.909C1320.88 157.163 1320.94 157.895 1320.47 158.216L1303.37 169.794Z" stroke="black" stroke-width="1.4268" stroke-miterlimit="10"/>
<path d="M1364.01 302.91V219.999L1435.82 261.396L1364.01 302.91ZM1368.06 227.053V295.856L1427.73 261.396L1368.06 227.053Z" fill="black"/>
<path d="M1270.5 293L1643.32 938.75H897.676L1270.5 293Z" fill="url(#paint0_diamond_173_298)"/>
<rect y="875" width="500" height="217" fill="url(#paint1_linear_173_298)"/>
<rect width="149" height="395" fill="url(#paint2_diamond_173_298)"/>
<path d="M1249.41 1026.21C1250.95 1026.49 1252.07 1028.03 1251.79 1029.57C1251.51 1031.12 1249.97 1032.24 1248.43 1031.96C1246.88 1031.68 1245.76 1030.13 1246.04 1028.59C1246.32 1026.91 1247.87 1025.93 1249.41 1026.21Z" fill="black"/>
<path d="M1249.41 1003.63C1250.95 1003.91 1252.07 1005.45 1251.79 1007C1251.51 1008.54 1249.97 1009.66 1248.43 1009.38C1246.88 1009.1 1245.76 1007.56 1246.04 1006.02C1246.32 1004.47 1247.87 1003.35 1249.41 1003.63Z" fill="black"/>
<path d="M1249.41 981.196C1250.95 981.476 1252.07 983.018 1251.79 984.561C1251.51 986.103 1249.97 987.225 1248.43 986.945C1246.88 986.664 1245.76 985.122 1246.04 983.579C1246.32 981.897 1247.87 980.775 1249.41 981.196Z" fill="black"/>
<path d="M1249.41 958.619C1250.95 958.9 1252.07 960.442 1251.79 961.985C1251.51 963.527 1249.97 964.649 1248.43 964.369C1246.88 964.088 1245.76 962.546 1246.04 961.003C1246.32 959.32 1247.87 958.339 1249.41 958.619Z" fill="black"/>
<path d="M1249.41 936.043C1250.95 936.323 1252.07 937.866 1251.79 939.408C1251.51 940.951 1249.97 942.073 1248.43 941.792C1246.88 941.512 1245.76 939.969 1246.04 938.427C1246.32 936.884 1247.87 935.762 1249.41 936.043Z" fill="black"/>
<path d="M1268.34 1026.21C1269.88 1026.49 1271 1028.03 1270.72 1029.57C1270.44 1031.12 1268.9 1032.24 1267.36 1031.96C1265.81 1031.68 1264.69 1030.13 1264.97 1028.59C1265.25 1026.91 1266.8 1025.93 1268.34 1026.21Z" fill="black"/>
<path d="M1268.34 1003.63C1269.88 1003.91 1271 1005.45 1270.72 1007C1270.44 1008.54 1268.9 1009.66 1267.36 1009.38C1265.81 1009.1 1264.69 1007.56 1264.97 1006.02C1265.25 1004.47 1266.8 1003.35 1268.34 1003.63Z" fill="black"/>
<path d="M1268.34 981.196C1269.88 981.476 1271 983.018 1270.72 984.561C1270.44 986.103 1268.9 987.225 1267.36 986.945C1265.81 986.664 1264.69 985.122 1264.97 983.579C1265.25 981.897 1266.8 980.775 1268.34 981.196Z" fill="black"/>
<path d="M1268.34 958.619C1269.88 958.9 1271 960.442 1270.72 961.985C1270.44 963.527 1268.9 964.649 1267.36 964.369C1265.81 964.088 1264.69 962.546 1264.97 961.003C1265.25 959.32 1266.8 958.339 1268.34 958.619Z" fill="black"/>
<path d="M1268.34 936.043C1269.88 936.323 1271 937.866 1270.72 939.408C1270.44 940.951 1268.9 942.073 1267.36 941.792C1265.81 941.512 1264.69 939.969 1264.97 938.427C1265.25 936.884 1266.8 935.762 1268.34 936.043Z" fill="black"/>
<path d="M1287.41 1026.21C1288.95 1026.49 1290.07 1028.03 1289.79 1029.57C1289.51 1031.12 1287.97 1032.24 1286.43 1031.96C1284.89 1031.68 1283.76 1030.13 1284.04 1028.59C1284.32 1026.91 1285.73 1025.93 1287.41 1026.21Z" fill="black"/>
<path d="M1287.41 1003.63C1288.95 1003.91 1290.07 1005.45 1289.79 1007C1289.51 1008.54 1287.97 1009.66 1286.43 1009.38C1284.89 1009.1 1283.76 1007.56 1284.04 1006.02C1284.32 1004.47 1285.73 1003.35 1287.41 1003.63Z" fill="black"/>
<path d="M1287.41 981.196C1288.95 981.476 1290.07 983.018 1289.79 984.561C1289.51 986.103 1287.97 987.225 1286.43 986.945C1284.89 986.664 1283.76 985.122 1284.04 983.579C1284.32 981.897 1285.73 980.775 1287.41 981.196Z" fill="black"/>
<path d="M1287.41 958.619C1288.95 958.9 1290.07 960.442 1289.79 961.985C1289.51 963.527 1287.97 964.649 1286.43 964.369C1284.89 964.088 1283.76 962.546 1284.04 961.003C1284.32 959.32 1285.73 958.339 1287.41 958.619Z" fill="black"/>
<path d="M1287.41 936.043C1288.95 936.323 1290.07 937.866 1289.79 939.408C1289.51 940.951 1287.97 942.073 1286.43 941.792C1284.89 941.512 1283.76 939.969 1284.04 938.427C1284.32 936.884 1285.73 935.762 1287.41 936.043Z" fill="black"/>
<path d="M1306.34 1026.21C1307.88 1026.49 1309 1028.03 1308.72 1029.57C1308.44 1031.12 1306.9 1032.24 1305.36 1031.96C1303.82 1031.68 1302.69 1030.13 1302.97 1028.59C1303.25 1026.91 1304.8 1025.93 1306.34 1026.21Z" fill="black"/>
<path d="M1306.34 1003.63C1307.88 1003.91 1309 1005.45 1308.72 1007C1308.44 1008.54 1306.9 1009.66 1305.36 1009.38C1303.82 1009.1 1302.69 1007.56 1302.97 1006.02C1303.25 1004.47 1304.8 1003.35 1306.34 1003.63Z" fill="black"/>
<path d="M1306.34 981.196C1307.88 981.476 1309 983.018 1308.72 984.561C1308.44 986.103 1306.9 987.225 1305.36 986.945C1303.82 986.664 1302.69 985.122 1302.97 983.579C1303.25 981.897 1304.8 980.775 1306.34 981.196Z" fill="black"/>
<path d="M1306.34 958.619C1307.88 958.9 1309 960.442 1308.72 961.985C1308.44 963.527 1306.9 964.649 1305.36 964.369C1303.82 964.088 1302.69 962.546 1302.97 961.003C1303.25 959.32 1304.8 958.339 1306.34 958.619Z" fill="black"/>
<path d="M1306.34 936.043C1307.88 936.323 1309 937.866 1308.72 939.408C1308.44 940.951 1306.9 942.073 1305.36 941.792C1303.82 941.512 1302.69 939.969 1302.97 938.427C1303.25 936.884 1304.8 935.762 1306.34 936.043Z" fill="black"/>
<path d="M1325.27 1026.21C1326.81 1026.49 1327.93 1028.03 1327.65 1029.57C1327.37 1031.12 1325.83 1032.24 1324.29 1031.96C1322.75 1031.68 1321.62 1030.13 1321.9 1028.59C1322.19 1026.91 1323.73 1025.93 1325.27 1026.21Z" fill="black"/>
<path d="M1325.27 1003.63C1326.81 1003.91 1327.93 1005.45 1327.65 1007C1327.37 1008.54 1325.83 1009.66 1324.29 1009.38C1322.75 1009.1 1321.62 1007.56 1321.9 1006.02C1322.19 1004.47 1323.73 1003.35 1325.27 1003.63Z" fill="black"/>
<path d="M1325.27 981.196C1326.81 981.476 1327.93 983.018 1327.65 984.561C1327.37 986.103 1325.83 987.225 1324.29 986.945C1322.75 986.664 1321.62 985.122 1321.9 983.579C1322.19 981.897 1323.73 980.775 1325.27 981.196Z" fill="black"/>
<path d="M1325.27 958.619C1326.81 958.9 1327.93 960.442 1327.65 961.985C1327.37 963.527 1325.83 964.649 1324.29 964.369C1322.75 964.088 1321.62 962.546 1321.9 961.003C1322.19 959.32 1323.73 958.339 1325.27 958.619Z" fill="black"/>
<path d="M1325.27 936.043C1326.81 936.323 1327.93 937.866 1327.65 939.408C1327.37 940.951 1325.83 942.073 1324.29 941.792C1322.75 941.512 1321.62 939.969 1321.9 938.427C1322.19 936.884 1323.73 935.762 1325.27 936.043Z" fill="black"/>
<path d="M1344.34 1026.21C1345.88 1026.49 1347.01 1028.03 1346.72 1029.57C1346.44 1031.12 1344.9 1032.24 1343.36 1031.96C1341.82 1031.68 1340.7 1030.13 1340.98 1028.59C1341.12 1026.91 1342.66 1025.93 1344.34 1026.21Z" fill="black"/>
<path d="M1344.34 1003.63C1345.88 1003.91 1347.01 1005.45 1346.72 1007C1346.44 1008.54 1344.9 1009.66 1343.36 1009.38C1341.82 1009.1 1340.7 1007.56 1340.98 1006.02C1341.12 1004.47 1342.66 1003.35 1344.34 1003.63Z" fill="black"/>
<path d="M1344.34 981.196C1345.88 981.476 1347.01 983.018 1346.72 984.561C1346.44 986.103 1344.9 987.225 1343.36 986.945C1341.82 986.664 1340.7 985.122 1340.98 983.579C1341.12 981.897 1342.66 980.775 1344.34 981.196Z" fill="black"/>
<path d="M1344.34 958.619C1345.88 958.9 1347.01 960.442 1346.72 961.985C1346.44 963.527 1344.9 964.649 1343.36 964.369C1341.82 964.088 1340.7 962.546 1340.98 961.003C1341.12 959.32 1342.66 958.339 1344.34 958.619Z" fill="black"/>
<path d="M1344.34 936.043C1345.88 936.323 1347.01 937.866 1346.72 939.408C1346.44 940.951 1344.9 942.073 1343.36 941.792C1341.82 941.512 1340.7 939.969 1340.98 938.427C1341.12 936.884 1342.66 935.762 1344.34 936.043Z" fill="black"/>
<path d="M1363.27 1026.21C1364.81 1026.49 1365.94 1028.03 1365.65 1029.57C1365.37 1031.12 1363.83 1032.24 1362.29 1031.96C1360.75 1031.68 1359.63 1030.13 1359.91 1028.59C1360.19 1026.91 1361.73 1025.93 1363.27 1026.21Z" fill="black"/>
<path d="M1363.27 1003.63C1364.81 1003.91 1365.94 1005.45 1365.65 1007C1365.37 1008.54 1363.83 1009.66 1362.29 1009.38C1360.75 1009.1 1359.63 1007.56 1359.91 1006.02C1360.19 1004.47 1361.73 1003.35 1363.27 1003.63Z" fill="black"/>
<path d="M1363.27 981.196C1364.81 981.476 1365.94 983.018 1365.65 984.561C1365.37 986.103 1363.83 987.225 1362.29 986.945C1360.75 986.664 1359.63 985.122 1359.91 983.579C1360.19 981.897 1361.73 980.775 1363.27 981.196Z" fill="black"/>
<path d="M1363.27 958.619C1364.81 958.9 1365.94 960.442 1365.65 961.985C1365.37 963.527 1363.83 964.649 1362.29 964.369C1360.75 964.088 1359.63 962.546 1359.91 961.003C1360.19 959.32 1361.73 958.339 1363.27 958.619Z" fill="black"/>
<path d="M1363.27 936.043C1364.81 936.323 1365.94 937.866 1365.65 939.408C1365.37 940.951 1363.83 942.073 1362.29 941.792C1360.75 941.512 1359.63 939.969 1359.91 938.427C1360.19 936.884 1361.73 935.762 1363.27 936.043Z" fill="black"/>
<path d="M1382.2 1026.21C1383.74 1026.49 1384.87 1028.03 1384.59 1029.57C1384.3 1031.12 1382.76 1032.24 1381.22 1031.96C1379.68 1031.68 1378.56 1030.13 1378.84 1028.59C1379.12 1026.91 1380.66 1025.93 1382.2 1026.21Z" fill="black"/>
<path d="M1382.2 1003.63C1383.74 1003.91 1384.87 1005.45 1384.59 1007C1384.3 1008.54 1382.76 1009.66 1381.22 1009.38C1379.68 1009.1 1378.56 1007.56 1378.84 1006.02C1379.12 1004.47 1380.66 1003.35 1382.2 1003.63Z" fill="black"/>
<path d="M1382.2 981.196C1383.74 981.476 1384.87 983.018 1384.59 984.561C1384.3 986.103 1382.76 987.225 1381.22 986.945C1379.68 986.664 1378.56 985.122 1378.84 983.579C1379.12 981.897 1380.66 980.775 1382.2 981.196Z" fill="black"/>
<path d="M1382.2 958.619C1383.74 958.9 1384.87 960.442 1384.59 961.985C1384.3 963.527 1382.76 964.649 1381.22 964.369C1379.68 964.088 1378.56 962.546 1378.84 961.003C1379.12 959.32 1380.66 958.339 1382.2 958.619Z" fill="black"/>
<path d="M1382.2 936.043C1383.74 936.323 1384.87 937.866 1384.59 939.408C1384.3 940.951 1382.76 942.073 1381.22 941.792C1379.68 941.512 1378.56 939.969 1378.84 938.427C1379.12 936.884 1380.66 935.762 1382.2 936.043Z" fill="black"/>
<path d="M1401.13 1026.21C1402.67 1026.49 1403.8 1028.03 1403.52 1029.57C1403.24 1031.12 1401.69 1032.24 1400.15 1031.96C1398.61 1031.68 1397.49 1030.13 1397.77 1028.59C1398.05 1026.91 1399.59 1025.93 1401.13 1026.21Z" fill="black"/>
<path d="M1403.66 1006.58C1403.66 1004.95 1402.34 1003.63 1400.71 1003.63C1399.08 1003.63 1397.77 1004.95 1397.77 1006.58C1397.77 1008.2 1399.08 1009.52 1400.71 1009.52C1402.34 1009.52 1403.66 1008.2 1403.66 1006.58Z" fill="black"/>
<path d="M1403.6 983.655C1403.38 982.043 1401.9 980.915 1400.29 981.135C1398.67 981.354 1397.55 982.838 1397.77 984.45C1397.98 986.061 1399.47 987.189 1401.08 986.97C1402.69 986.75 1403.82 985.266 1403.6 983.655Z" fill="black"/>
<path d="M1401.13 958.619C1402.67 958.9 1403.8 960.442 1403.52 961.985C1403.24 963.527 1401.69 964.649 1400.15 964.369C1398.61 964.088 1397.49 962.546 1397.77 961.003C1398.05 959.32 1399.59 958.339 1401.13 958.619Z" fill="black"/>
<path d="M1401.13 936.043C1402.67 936.323 1403.8 937.866 1403.52 939.408C1403.24 940.951 1401.69 942.073 1400.15 941.792C1398.61 941.512 1397.49 939.969 1397.77 938.427C1398.05 936.884 1399.59 935.762 1401.13 936.043Z" fill="black"/>
<path d="M1420.2 1026.21C1421.74 1026.49 1422.87 1028.03 1422.59 1029.57C1422.31 1031.12 1420.76 1032.24 1419.22 1031.96C1417.68 1031.68 1416.56 1030.13 1416.84 1028.59C1417.12 1026.91 1418.52 1025.93 1420.2 1026.21Z" fill="black"/>
<path d="M1422.59 1006.58C1422.59 1004.95 1421.27 1003.63 1419.64 1003.63C1418.02 1003.63 1416.7 1004.95 1416.7 1006.58C1416.7 1008.2 1418.02 1009.52 1419.64 1009.52C1421.27 1009.52 1422.59 1008.2 1422.59 1006.58Z" fill="black"/>
<path d="M1422.53 983.66C1422.31 982.049 1420.83 980.921 1419.21 981.14C1417.6 981.36 1416.48 982.844 1416.69 984.455C1416.91 986.067 1418.4 987.195 1420.01 986.976C1421.62 986.756 1422.75 985.272 1422.53 983.66Z" fill="black"/>
<path d="M1420.2 958.619C1421.74 958.9 1422.87 960.442 1422.59 961.985C1422.31 963.527 1420.76 964.649 1419.22 964.369C1417.68 964.088 1416.56 962.546 1416.84 961.003C1417.12 959.32 1418.52 958.339 1420.2 958.619Z" fill="black"/>
<path d="M1420.2 936.043C1421.74 936.323 1422.87 937.866 1422.59 939.408C1422.31 940.951 1420.76 942.073 1419.22 941.792C1417.68 941.512 1416.56 939.969 1416.84 938.427C1417.12 936.884 1418.52 935.762 1420.2 936.043Z" fill="black"/>
<path d="M1439.13 1026.21C1440.68 1026.49 1441.8 1028.03 1441.52 1029.57C1441.24 1031.12 1439.69 1032.24 1438.15 1031.96C1436.61 1031.68 1435.49 1030.13 1435.77 1028.59C1436.05 1026.91 1437.59 1025.93 1439.13 1026.21Z" fill="black"/>
<path d="M1441.52 1006.58C1441.52 1004.95 1440.2 1003.63 1438.57 1003.63C1436.95 1003.63 1435.63 1004.95 1435.63 1006.58C1435.63 1008.2 1436.95 1009.52 1438.57 1009.52C1440.2 1009.52 1441.52 1008.2 1441.52 1006.58Z" fill="black"/>
<path d="M1441.46 983.667C1441.24 982.055 1439.76 980.927 1438.14 981.147C1436.53 981.366 1435.41 982.85 1435.62 984.462C1435.84 986.073 1437.33 987.201 1438.94 986.982C1440.55 986.762 1441.68 985.278 1441.46 983.667Z" fill="black"/>
<path d="M1439.13 958.619C1440.68 958.9 1441.8 960.442 1441.52 961.985C1441.24 963.527 1439.69 964.649 1438.15 964.369C1436.61 964.088 1435.49 962.546 1435.77 961.003C1436.05 959.32 1437.59 958.339 1439.13 958.619Z" fill="black"/>
<path d="M1439.13 936.043C1440.68 936.323 1441.8 937.866 1441.52 939.408C1441.24 940.951 1439.69 942.073 1438.15 941.792C1436.61 941.512 1435.49 939.969 1435.77 938.427C1436.05 936.884 1437.59 935.762 1439.13 936.043Z" fill="black"/>
</g>
<defs>
<radialGradient id="paint0_diamond_173_298" cx="0" cy="0" r="1" gradientUnits="userSpaceOnUse" gradientTransform="translate(1270.5 723.5) rotate(149.457) scale(583.454)">
<stop stop-color="#2EC5CE"/>
<stop offset="0.977941" stop-color="#2EC5CE" stop-opacity="0"/>
</radialGradient>
<linearGradient id="paint1_linear_173_298" x1="250" y1="603.5" x2="250" y2="1063.5" gradientUnits="userSpaceOnUse">
<stop stop-color="#2EC5CE"/>
<stop offset="1" stop-color="#2EC5CE" stop-opacity="0"/>
</linearGradient>
<radialGradient id="paint2_diamond_173_298" cx="0" cy="0" r="1" gradientUnits="userSpaceOnUse" gradientTransform="translate(34 81.5) rotate(72.1681) scale(375.541 141.66)">
<stop stop-color="#2EC5CE"/>
<stop offset="1" stop-color="#2EC5CE" stop-opacity="0"/>
</radialGradient>
<clipPath id="clip0_173_298">
<rect width="1440" height="1258" fill="white"/>
</clipPath>
</defs>
</svg>
