<svg width="60" height="60" viewBox="0 0 60 60" fill="none" xmlns="http://www.w3.org/2000/svg">
<path d="M30 45C30.85 45 31.563 44.712 32.139 44.136C32.713 43.562 33 42.85 33 42V33H42.075C42.925 33 43.625 32.712 44.175 32.136C44.725 31.562 45 30.85 45 30C45 29.15 44.712 28.437 44.136 27.861C43.562 27.287 42.85 27 42 27H33V17.925C33 17.075 32.713 16.375 32.139 15.825C31.563 15.275 30.85 15 30 15C29.15 15 28.438 15.287 27.864 15.861C27.288 16.437 27 17.15 27 18V27H17.925C17.075 27 16.375 27.287 15.825 27.861C15.275 28.437 15 29.15 15 30C15 30.85 15.287 31.562 15.861 32.136C16.437 32.712 17.15 33 18 33H27V42.075C27 42.925 27.288 43.625 27.864 44.175C28.438 44.725 29.15 45 30 45ZM30 60C25.85 60 21.95 59.212 18.3 57.636C14.65 56.062 11.475 53.925 8.775 51.225C6.075 48.525 3.938 45.35 2.364 41.7C0.788 38.05 0 34.15 0 30C0 25.85 0.788 21.95 2.364 18.3C3.938 14.65 6.075 11.475 8.775 8.775C11.475 6.075 14.65 3.937 18.3 2.361C21.95 0.787 25.85 0 30 0C34.15 0 38.05 0.787 41.7 2.361C45.35 3.937 48.525 6.075 51.225 8.775C53.925 11.475 56.062 14.65 57.636 18.3C59.212 21.95 60 25.85 60 30C60 34.15 59.212 38.05 57.636 41.7C56.062 45.35 53.925 48.525 51.225 51.225C48.525 53.925 45.35 56.062 41.7 57.636C38.05 59.212 34.15 60 30 60Z" fill="#2EC5CE"/>
</svg>
